<?xml version="1.0" standalone="no"?>
<!DOCTYPE svg PUBLIC "-//W3C//DTD SVG 20010904//EN"
 "http://www.w3.org/TR/2001/REC-SVG-20010904/DTD/svg10.dtd">
<svg version="1.0" xmlns="http://www.w3.org/2000/svg"
 width="512.000000pt" height="512.000000pt" viewBox="0 0 512.000000 512.000000"
 preserveAspectRatio="xMidYMid meet">

<g transform="translate(0.000000,512.000000) scale(0.100000,-0.100000)"
fill="#000000" stroke="none">
<path d="M2923 3916 c-174 -57 -260 -250 -193 -429 19 -52 48 -86 232 -278
116 -121 233 -244 260 -274 l50 -55 -1124 -2 -1123 -3 -51 -27 c-60 -32 -118
-93 -148 -157 -30 -65 -30 -197 0 -262 30 -64 88 -125 148 -157 l51 -27 1124
-5 1123 -5 -238 -249 c-132 -137 -253 -268 -270 -292 -42 -59 -57 -118 -52
-206 13 -256 297 -387 488 -225 27 23 278 283 558 578 362 381 516 550 533
585 31 64 34 184 5 258 -22 57 -11 45 -636 700 -512 536 -511 535 -632 542
-37 2 -80 -2 -105 -10z"/>
</g>
</svg>
