<?xml version="1.0" encoding="UTF-8"?>
<svg version="1.1" xmlns="http://www.w3.org/2000/svg" width="225" height="225">
<path d="M0 0 C2.35340726 1.63104596 4.57419436 3.2881866 6.8125 5.0625 C31.20547245 23.60501518 62.84265958 31.45627129 93.125 31.3125 C94.38763672 31.30686035 95.65027344 31.3012207 96.95117188 31.29541016 C128.35527458 30.89187143 158.65615465 21.9129832 183.5625 2.5 C186.3325471 0.38415551 188.37848284 -1.09787884 192 -1 C195.48634601 0.62155629 196.84302194 1.76453292 199 5 C199.32939417 9.11742714 198.87495199 10.94389055 196.2265625 14.140625 C188.15993744 21.80525878 177.7407228 28.85356127 167 32 C170.25220531 35.91447257 173.60857696 39.6627791 177.2890625 43.1796875 C178.15785034 44.01657104 178.15785034 44.01657104 179.04418945 44.87036133 C180.2040637 45.98027275 181.37423588 47.0795425 182.55541992 48.16674805 C186.42536481 51.88567069 188.12068164 54.66037111 189 60 C187.47601225 63.60944467 186.28375102 64.81083265 183 67 C178.55094941 66.96661248 176.49856236 66.40579707 173.02148438 63.57568359 C172.03076654 62.53043908 171.05544442 61.47044579 170.09375 60.3984375 C169.00930624 59.25763028 167.92466489 58.11701087 166.83984375 56.9765625 C165.16164856 55.17381953 163.49066643 53.36483672 161.82470703 51.55078125 C160.20226476 49.79555477 158.55600134 48.06545973 156.90625 46.3359375 C156.4174939 45.78706879 155.92873779 45.23820007 155.4251709 44.67269897 C153.83512489 42.9274893 153.83512489 42.9274893 151 41 C147.40837926 40.97206115 147.40837926 40.97206115 144 42 C143.19248291 42.15863525 142.38496582 42.31727051 141.55297852 42.48071289 C140.83553467 42.6430542 140.11809082 42.80539551 139.37890625 42.97265625 C138.58935547 43.14990234 137.79980469 43.32714844 136.98632812 43.50976562 C135.7865332 43.78336914 135.7865332 43.78336914 134.5625 44.0625 C133.73556641 44.24876953 132.90863281 44.43503906 132.05664062 44.62695312 C130.03720996 45.0822005 128.01852613 45.54075861 126 46 C126.12640869 46.71542969 126.25281738 47.43085938 126.38305664 48.16796875 C126.95481913 51.44335477 127.50877649 54.72151822 128.0625 58 C128.26166016 59.12535156 128.46082031 60.25070313 128.66601562 61.41015625 C129.69476744 67.58266712 130.34068379 72.85459537 129 79 C126.6687311 81.86925403 125.17501742 81.97499751 121.5 82.5 C118 82 118 82 115.91796875 80.11328125 C113.26668533 75.80967048 112.62966442 71.62841398 111.8125 66.6875 C111.64814453 65.77548828 111.48378906 64.86347656 111.31445312 63.92382812 C110.37741235 58.63163427 109.61955501 53.33818605 109 48 C107.96552734 48.10828125 107.96552734 48.10828125 106.91015625 48.21875 C97.07275558 49.19034513 87.82975658 49.0289091 78 48 C78.02320312 48.58007812 78.04640625 49.16015625 78.0703125 49.7578125 C78.08835937 50.53898437 78.10640625 51.32015625 78.125 52.125 C78.14820312 52.89070313 78.17140625 53.65640625 78.1953125 54.4453125 C77.95942886 57.53067051 76.99058307 60.07244036 76 63 C75.4673624 66.2865713 75.06110888 69.57396663 74.66015625 72.87890625 C73.96359401 76.17212064 72.96126172 78.28176008 71 81 C67.76869498 82.61565251 64.49364312 82.56504682 61 82 C58.4375 80.25 58.4375 80.25 57 77 C56.79565559 72.92673475 57.39766212 69.02395164 58 65 C58.17789063 63.80648926 58.17789063 63.80648926 58.359375 62.58886719 C59.19242754 57.05115045 60.0812427 51.52410051 61 46 C57.60833365 45.12867639 54.21117918 44.28101682 50.8125 43.4375 C49.37293945 43.0672168 49.37293945 43.0672168 47.90429688 42.68945312 C46.97294922 42.46064453 46.04160156 42.23183594 45.08203125 41.99609375 C44.22843018 41.78138428 43.3748291 41.5666748 42.49536133 41.34545898 C39.52981328 40.93490713 37.83377129 40.98517777 35 42 C32.9265365 43.80456263 31.11157598 45.56274842 29.25390625 47.56640625 C28.15844184 48.70270415 27.06273117 49.83876467 25.96679688 50.97460938 C24.2589868 52.76946981 22.55641956 54.56896565 20.85913086 56.3737793 C19.21199236 58.11757023 17.54676585 59.84245853 15.87890625 61.56640625 C15.37871475 62.11011368 14.87852325 62.65382111 14.36317444 63.21400452 C11.86521338 65.78094834 10.40034938 66.94116026 6.81225586 67.46850586 C2.76463717 66.79419557 1.37961948 65.28947399 -1 62 C-1.52482523 57.80841619 -1.54361284 55.76770856 0.92773438 52.27758789 C1.80751953 51.43446045 2.68730469 50.59133301 3.59375 49.72265625 C4.05986694 49.26644394 4.52598389 48.81023163 5.00622559 48.3401947 C6.48845339 46.89693291 7.9931636 45.48000493 9.5 44.0625 C10.51330956 43.08432757 11.52504758 42.10452435 12.53515625 41.12304688 C15.0084459 38.73220022 17.49655482 36.35918637 20 34 C17.17130943 31.82323122 14.31286336 30.01089884 11.17724609 28.2980957 C2.46842934 23.53549841 -6.24743494 18.30926065 -12 10 C-11.93822484 6.41704089 -11.76840164 4.04782042 -9.625 1.125 C-6.19391801 -1.25036445 -3.8370114 -1.23156571 0 0 Z " fill="#000000" transform="translate(19,92)"/>
<path d="" fill="#FFFFFF" transform="translate(0,0)"/>
<path d="" fill="#FFFFFF" transform="translate(0,0)"/>
<path d="" fill="#FFFFFF" transform="translate(0,0)"/>
<path d="" fill="#FFFFFF" transform="translate(0,0)"/>
<path d="" fill="#FFFFFF" transform="translate(0,0)"/>
<path d="" fill="#FFFFFF" transform="translate(0,0)"/>
<path d="" fill="#FFFFFF" transform="translate(0,0)"/>
<path d="" fill="#FFFFFF" transform="translate(0,0)"/>
<path d="" fill="#FFFFFF" transform="translate(0,0)"/>
<path d="" fill="#FFFFFF" transform="translate(0,0)"/>
<path d="" fill="#FFFFFF" transform="translate(0,0)"/>
<path d="" fill="#FFFFFF" transform="translate(0,0)"/>
<path d="" fill="#FFFFFF" transform="translate(0,0)"/>
<path d="" fill="#FFFFFF" transform="translate(0,0)"/>
<path d="" fill="#FFFFFF" transform="translate(0,0)"/>
<path d="" fill="#FFFFFF" transform="translate(0,0)"/>
<path d="" fill="#FFFFFF" transform="translate(0,0)"/>
<path d="" fill="#FFFFFF" transform="translate(0,0)"/>
<path d="" fill="#FFFFFF" transform="translate(0,0)"/>
<path d="" fill="#FFFFFF" transform="translate(0,0)"/>
<path d="" fill="#FFFFFF" transform="translate(0,0)"/>
<path d="" fill="#FFFFFF" transform="translate(0,0)"/>
<path d="" fill="#FFFFFF" transform="translate(0,0)"/>
<path d="" fill="#FFFFFF" transform="translate(0,0)"/>
<path d="" fill="#FFFFFF" transform="translate(0,0)"/>
<path d="" fill="#FFFFFF" transform="translate(0,0)"/>
<path d="" fill="#FFFFFF" transform="translate(0,0)"/>
<path d="" fill="#FFFFFF" transform="translate(0,0)"/>
<path d="" fill="#FFFFFF" transform="translate(0,0)"/>
<path d="" fill="#FFFFFF" transform="translate(0,0)"/>
<path d="" fill="#FFFFFF" transform="translate(0,0)"/>
<path d="" fill="#FFFFFF" transform="translate(0,0)"/>
<path d="" fill="#FFFFFF" transform="translate(0,0)"/>
<path d="" fill="#FFFFFF" transform="translate(0,0)"/>
<path d="" fill="#FFFFFF" transform="translate(0,0)"/>
<path d="" fill="#FFFFFF" transform="translate(0,0)"/>
<path d="" fill="#FFFFFF" transform="translate(0,0)"/>
<path d="" fill="#FFFFFF" transform="translate(0,0)"/>
<path d="" fill="#FFFFFF" transform="translate(0,0)"/>
<path d="" fill="#FFFFFF" transform="translate(0,0)"/>
<path d="" fill="#FFFFFF" transform="translate(0,0)"/>
<path d="" fill="#FFFFFF" transform="translate(0,0)"/>
<path d="" fill="#FFFFFF" transform="translate(0,0)"/>
<path d="" fill="#FFFFFF" transform="translate(0,0)"/>
<path d="" fill="#FFFFFF" transform="translate(0,0)"/>
<path d="" fill="#FFFFFF" transform="translate(0,0)"/>
<path d="" fill="#FFFFFF" transform="translate(0,0)"/>
<path d="" fill="#FFFFFF" transform="translate(0,0)"/>
<path d="" fill="#FFFFFF" transform="translate(0,0)"/>
<path d="" fill="#FFFFFF" transform="translate(0,0)"/>
<path d="" fill="#FFFFFF" transform="translate(0,0)"/>
<path d="" fill="#FFFFFF" transform="translate(0,0)"/>
<path d="" fill="#FFFFFF" transform="translate(0,0)"/>
<path d="" fill="#FFFFFF" transform="translate(0,0)"/>
<path d="" fill="#FFFFFF" transform="translate(0,0)"/>
<path d="" fill="#FFFFFF" transform="translate(0,0)"/>
<path d="" fill="#FFFFFF" transform="translate(0,0)"/>
<path d="" fill="#FFFFFF" transform="translate(0,0)"/>
<path d="" fill="#FFFFFF" transform="translate(0,0)"/>
<path d="" fill="#FFFFFF" transform="translate(0,0)"/>
<path d="" fill="#FFFFFF" transform="translate(0,0)"/>
<path d="" fill="#FFFFFF" transform="translate(0,0)"/>
<path d="" fill="#FFFFFF" transform="translate(0,0)"/>
<path d="" fill="#FFFFFF" transform="translate(0,0)"/>
<path d="" fill="#FFFFFF" transform="translate(0,0)"/>
<path d="" fill="#FFFFFF" transform="translate(0,0)"/>
<path d="" fill="#FFFFFF" transform="translate(0,0)"/>
<path d="" fill="#FFFFFF" transform="translate(0,0)"/>
<path d="" fill="#FFFFFF" transform="translate(0,0)"/>
<path d="" fill="#FFFFFF" transform="translate(0,0)"/>
<path d="" fill="#FFFFFF" transform="translate(0,0)"/>
<path d="" fill="#FEFFFF" transform="translate(0,0)"/>
<path d="" fill="#FFFFFF" transform="translate(0,0)"/>
<path d="" fill="#FFFFFF" transform="translate(0,0)"/>
<path d="" fill="#FFFFFF" transform="translate(0,0)"/>
<path d="" fill="#FFFFFF" transform="translate(0,0)"/>
<path d="" fill="#FFFFFF" transform="translate(0,0)"/>
<path d="" fill="#FFFFFF" transform="translate(0,0)"/>
<path d="" fill="#FFFFFF" transform="translate(0,0)"/>
<path d="" fill="#FFFFFF" transform="translate(0,0)"/>
<path d="" fill="#FFFFFF" transform="translate(0,0)"/>
<path d="" fill="#FFFFFF" transform="translate(0,0)"/>
</svg>
