<svg width="38" height="40" viewBox="0 0 38 40" fill="none" xmlns="http://www.w3.org/2000/svg">
<path fill-rule="evenodd" clip-rule="evenodd" d="M25.5385 2H12.4615C6.68379 2 2 6.60507 2 12.2857V27.7143C2 33.3948 6.68379 38 12.4615 38H25.5385C31.3161 38 36 33.3948 36 27.7143V12.2857C36 6.60507 31.3161 2 25.5385 2Z" stroke="#052759" stroke-width="3" stroke-linecap="round" stroke-linejoin="round"/>
<path d="M26.8301 14.2197C27.9112 14.2197 28.7877 13.3571 28.7877 12.293C28.7877 11.2289 27.9112 10.3662 26.8301 10.3662V14.2197ZM11.1695 10.3662C10.0884 10.3662 9.21191 11.2289 9.21191 12.293C9.21191 13.3571 10.0884 14.2197 11.1695 14.2197V10.3662ZM26.8301 21.9268C27.9112 21.9268 28.7877 21.0641 28.7877 20C28.7877 18.9359 27.9112 18.0733 26.8301 18.0733V21.9268ZM11.1695 18.0733C10.0884 18.0733 9.21191 18.9359 9.21191 20C9.21191 21.0641 10.0884 21.9268 11.1695 21.9268V18.0733ZM18.9998 29.6338C20.0809 29.6338 20.9574 28.7711 20.9574 27.7071C20.9574 26.643 20.0809 25.7803 18.9998 25.7803V29.6338ZM11.1695 25.7803C10.0884 25.7803 9.21191 26.643 9.21191 27.7071C9.21191 28.7711 10.0884 29.6338 11.1695 29.6338V25.7803ZM26.8301 10.3662H11.1695V14.2197H26.8301V10.3662ZM26.8301 18.0733H11.1695V21.9268H26.8301V18.0733ZM18.9998 25.7803H11.1695V29.6338H18.9998V25.7803Z" fill="#052759"/>
</svg>
