<svg width="74" height="63" viewBox="0 0 74 63" fill="none" xmlns="http://www.w3.org/2000/svg">
<path d="M52 59.0001V52.889C52 49.6474 50.7357 46.5387 48.4853 44.2466C46.2349 41.9544 43.1826 40.6667 40 40.6667H16C12.8174 40.6667 9.76516 41.9544 7.51472 44.2466C5.26428 46.5387 4 49.6474 4 52.889V59.0001" stroke="#052759" stroke-width="8" stroke-linecap="round" stroke-linejoin="round"/>
<path d="M28 28.4444C34.6274 28.4444 40 22.9724 40 16.2222C40 9.47207 34.6274 4 28 4C21.3726 4 16 9.47207 16 16.2222C16 22.9724 21.3726 28.4444 28 28.4444Z" stroke="#052759" stroke-width="8" stroke-linecap="round" stroke-linejoin="round"/>
<path d="M52 28.4443H70" stroke="#052759" stroke-width="8" stroke-linecap="round" stroke-linejoin="round"/>
<path d="M61 19.2778V37.6112" stroke="#052759" stroke-width="8" stroke-linecap="round" stroke-linejoin="round"/>
</svg>
