<?xml version="1.0" encoding="UTF-8"?>
<svg version="1.1" xmlns="http://www.w3.org/2000/svg" width="500" height="500">
<path d="M0 0 C2.39428138 0.98579685 4.79957161 1.93747144 7.21044922 2.88183594 C30.13404338 11.992159 51.62961129 25.36930122 70.60839844 41.09472656 C73.778154 43.71983512 76.92469368 45.89872979 80.46435547 48.01464844 C82.50373107 49.63007775 84.49247983 51.25891395 86.46435547 52.95214844 C87.02396973 53.43014893 87.58358398 53.90814941 88.16015625 54.40063477 C104.90078026 68.79813208 104.90078026 68.79813208 111.89794922 77.19824219 C114.16246599 79.8241781 116.66063964 82.18915875 119.17919922 84.56933594 C120.46435547 86.01464844 120.46435547 86.01464844 120.46435547 88.01464844 C121.33060547 88.38203125 121.33060547 88.38203125 122.21435547 88.75683594 C129.54363949 92.8541093 134.91577444 101.77211448 139.90185547 108.38964844 C140.42199219 109.07945801 140.94212891 109.76926758 141.47802734 110.47998047 C148.45860359 119.8770869 148.78419196 128.44897015 147.46435547 140.01464844 C146.21666697 144.13836467 144.27323223 146.78365847 141.46435547 150.01464844 C140.52165988 151.15420807 139.58036578 152.29492787 138.64013672 153.43652344 C136.10136256 156.47950283 133.49945603 159.45978431 130.86816406 162.42285156 C128.45437436 165.15987919 126.11785228 167.96397312 123.76904297 170.75683594 C122.46435547 172.01464844 122.46435547 172.01464844 120.46435547 172.01464844 C120.12984375 172.84222656 120.12984375 172.84222656 119.78857422 173.68652344 C118.0488145 176.74521603 115.80671065 178.82202964 113.27685547 181.26464844 C110.0126836 184.44783793 106.83551592 187.64452188 103.90185547 191.13964844 C99.82855332 195.88861682 95.19575139 199.9351636 90.46435547 204.01464844 C89.96677734 204.44632324 89.46919922 204.87799805 88.95654297 205.32275391 C78.9906189 213.93964743 78.9906189 213.93964743 73.31201172 216.86621094 C70.7659268 218.44876689 68.6531996 220.41051519 66.40185547 222.38964844 C50.005146 236.55801821 28.30127114 249.62853892 7.90185547 257.20214844 C3.66955095 258.78559724 -0.53307057 260.41234091 -4.71533203 262.12402344 C-68.73880123 288.14928439 -138.78263223 287.28767507 -202.58642578 261.03027344 C-205.87865742 259.67674991 -209.18403761 258.37625909 -212.51611328 257.12402344 C-213.31847412 256.82101318 -214.12083496 256.51800293 -214.94750977 256.20581055 C-216.44586105 255.64273586 -217.94650083 255.08569175 -219.44995117 254.53637695 C-223.86132067 252.86683046 -227.6981657 250.80161861 -231.65087891 248.23071289 C-234.32988432 246.50219917 -237.11996013 244.99219279 -239.91064453 243.45214844 C-252.54390569 236.31651846 -264.50644011 228.19473254 -275.67797852 218.93554688 C-278.84860222 216.31052773 -281.99543334 214.13089551 -285.53564453 212.01464844 C-287.57502013 210.39921912 -289.5637689 208.77038292 -291.53564453 207.07714844 C-292.37506592 206.36014771 -292.37506592 206.36014771 -293.23144531 205.62866211 C-309.97206932 191.2311648 -309.97206932 191.2311648 -316.96923828 182.83105469 C-319.23375506 180.20511878 -321.7319287 177.84013812 -324.25048828 175.45996094 C-325.53564453 174.01464844 -325.53564453 174.01464844 -325.53564453 172.01464844 C-326.11314453 171.76972656 -326.69064453 171.52480469 -327.28564453 171.27246094 C-334.61492855 167.17518758 -339.9870635 158.2571824 -344.97314453 151.63964844 C-345.49328125 150.94983887 -346.01341797 150.2600293 -346.54931641 149.54931641 C-353.52989265 140.15220997 -353.85548102 131.58032672 -352.53564453 120.01464844 C-351.28795603 115.89093221 -349.34452129 113.2456384 -346.53564453 110.01464844 C-345.59294895 108.87508881 -344.65165484 107.734369 -343.71142578 106.59277344 C-341.17265162 103.54979405 -338.57074509 100.56951257 -335.93945312 97.60644531 C-333.52566342 94.86941768 -331.18914135 92.06532375 -328.84033203 89.27246094 C-327.53564453 88.01464844 -327.53564453 88.01464844 -325.53564453 88.01464844 C-325.31263672 87.46292969 -325.08962891 86.91121094 -324.85986328 86.34277344 C-323.12010357 83.28408084 -320.87799972 81.20726724 -318.34814453 78.76464844 C-315.08397267 75.58145895 -311.90680498 72.384775 -308.97314453 68.88964844 C-304.89984238 64.14068005 -300.26704045 60.09413327 -295.53564453 56.01464844 C-295.03806641 55.58297363 -294.54048828 55.15129883 -294.02783203 54.70654297 C-284.06190796 46.08964945 -284.06190796 46.08964945 -278.38330078 43.16308594 C-275.83721587 41.58052999 -273.72448866 39.61878169 -271.47314453 37.63964844 C-253.33271693 22.02249124 -230.10129347 9.00976703 -207.64599609 0.81005859 C-205.16970256 -0.12327833 -202.72555569 -1.12402273 -200.27783203 -2.12988281 C-135.25871354 -28.66625833 -64.57182797 -26.85764374 0 0 Z M-187.53564453 22.01464844 C-188.28120605 22.33127441 -189.02676758 22.64790039 -189.79492188 22.97412109 C-205.88306548 29.84574456 -221.82879305 37.50101751 -236.53564453 47.01464844 C-237.22335938 47.45679688 -237.91107422 47.89894531 -238.61962891 48.35449219 C-251.05458569 56.40264106 -263.70729971 64.62722158 -273.97705078 75.40917969 C-278.38893233 79.9537494 -283.35501201 83.88549011 -288.34814453 87.76464844 C-297.60526373 95.13052823 -305.34602144 103.66372761 -312.53564453 113.01464844 C-313.94883005 114.78826109 -315.36547216 116.55912537 -316.78564453 118.32714844 C-317.40955078 119.10703125 -318.03345703 119.88691406 -318.67626953 120.69042969 C-320.53564453 123.01464844 -320.53564453 123.01464844 -322.83251953 125.49511719 C-324.73670684 127.83530096 -324.73670684 127.83530096 -324.62939453 130.38183594 C-323.05397649 134.17409222 -320.66083604 137.01044254 -318.03564453 140.13964844 C-317.49101562 140.80198486 -316.94638672 141.46432129 -316.38525391 142.14672852 C-315.28380182 143.48552347 -314.17901767 144.82158452 -313.07080078 146.15478516 C-311.746594 147.75908021 -310.45080594 149.38675514 -309.16064453 151.01855469 C-305.17802208 156.04807973 -300.9793269 160.76789389 -296.47314453 165.32714844 C-295.76738281 166.04680786 -295.76738281 166.04680786 -295.04736328 166.78100586 C-292.39251581 169.41260519 -289.65266171 171.7186583 -286.63330078 173.92480469 C-282.42699427 177.01062571 -278.76521575 180.50341125 -275.03564453 184.13964844 C-263.29561341 195.33212407 -250.43390876 204.47943769 -236.54345703 212.80566406 C-234.56129099 213.99920568 -232.59497083 215.21590056 -230.62939453 216.43652344 C-218.41224794 223.92739413 -205.5604573 230.06495788 -192.53564453 236.01464844 C-191.81666992 236.34480957 -191.09769531 236.6749707 -190.35693359 237.01513672 C-139.82700003 259.83383394 -76.66906256 260.47442934 -25.03564453 241.13964844 C-22.51807389 240.12566409 -20.02530085 239.09167265 -17.53564453 238.01464844 C-16.79008301 237.69802246 -16.04452148 237.38139648 -15.27636719 237.05517578 C-2.00597252 231.38707897 10.76339698 224.85229301 23.46435547 218.01464844 C23.46435547 217.35464844 23.46435547 216.69464844 23.46435547 216.01464844 C24.28677734 215.7890625 25.10919922 215.56347656 25.95654297 215.33105469 C30.25425666 213.71821558 33.77678062 211.47821616 37.58935547 208.95214844 C38.3334668 208.46480225 39.07757813 207.97745605 39.84423828 207.4753418 C46.24925984 203.24094151 52.42116896 198.75348258 58.46435547 194.01464844 C59.39763672 193.31210937 60.33091797 192.60957031 61.29248047 191.88574219 C62.00919922 191.26828125 62.72591797 190.65082031 63.46435547 190.01464844 C63.46435547 189.35464844 63.46435547 188.69464844 63.46435547 188.01464844 C63.99544922 187.80324219 64.52654297 187.59183594 65.07373047 187.37402344 C68.39687796 185.48439055 70.97284293 182.8920307 73.71435547 180.26464844 C77.2159321 176.96106315 80.64347484 173.72736324 84.58935547 170.95214844 C93.59539303 164.47312141 100.75098848 155.74614415 107.46435547 147.01464844 C108.87754099 145.24103579 110.29418309 143.4701715 111.71435547 141.70214844 C112.33826172 140.92226563 112.96216797 140.14238281 113.60498047 139.33886719 C115.46435547 137.01464844 115.46435547 137.01464844 117.76123047 134.53417969 C119.66541778 132.19399591 119.66541778 132.19399591 119.55810547 129.64746094 C117.98268743 125.85520465 115.58954698 123.01885433 112.96435547 119.88964844 C112.41972656 119.22731201 111.87509766 118.56497559 111.31396484 117.88256836 C110.21251276 116.54377341 109.10772861 115.20771236 107.99951172 113.87451172 C106.67530493 112.27021667 105.37951688 110.64254173 104.08935547 109.01074219 C100.10673302 103.98121715 95.90803783 99.26140299 91.40185547 94.70214844 C90.93134766 94.22237549 90.46083984 93.74260254 89.97607422 93.24829102 C87.32122674 90.61669169 84.58137265 88.31063857 81.56201172 86.10449219 C77.35570521 83.01867117 73.69392669 79.52588562 69.96435547 75.88964844 C58.22432434 64.6971728 45.36261969 55.54985918 31.47216797 47.22363281 C29.49000192 46.0300912 27.52368176 44.81339632 25.55810547 43.59277344 C13.34095888 36.10190275 0.48916824 29.96433899 -12.53564453 24.01464844 C-13.25461914 23.6844873 -13.97359375 23.35432617 -14.71435547 23.01416016 C-67.40506068 -0.780315 -134.63740323 -0.8691072 -187.53564453 22.01464844 Z " fill="#0B0B0B" transform="translate(352.53564453125,119.9853515625)"/>
<path d="M0 0 C1.19712769 0.66028665 2.39505524 1.31912503 3.59375 1.9765625 C8.68799385 5.00273029 12.71126068 8.94644961 17 13 C17.65484375 13.59039062 18.3096875 14.18078125 18.984375 14.7890625 C23.78779964 19.27367577 26.79994861 24.30234752 30 30 C30.65226563 31.06476563 31.30453125 32.12953125 31.9765625 33.2265625 C46.35432463 56.84137773 49.13476749 84.31738433 43 111 C40.33463915 121.73117668 35.70708357 130.65082135 30 140 C29.33971335 141.19712769 28.68087497 142.39505524 28.0234375 143.59375 C24.99875404 148.68549513 21.0596568 152.71978459 17 157 C16.37480469 157.66644531 15.74960937 158.33289063 15.10546875 159.01953125 C9.26947187 165.06630905 2.85049092 169.33439114 -4.6875 173 C-5.38665527 173.34248779 -6.08581055 173.68497559 -6.80615234 174.0378418 C-8.86527438 175.03726702 -10.93056856 176.02212549 -13 177 C-14.06089844 177.50144531 -15.12179687 178.00289062 -16.21484375 178.51953125 C-23.61337048 181.80666192 -31.04214817 183.59509529 -39 185 C-40.27875 185.226875 -41.5575 185.45375 -42.875 185.6875 C-67.08313157 188.09805547 -89.34604127 182.6079384 -110 170 C-111.19712769 169.33971335 -112.39505524 168.68087497 -113.59375 168.0234375 C-118.68549513 164.99875404 -122.71978459 161.0596568 -127 157 C-127.66644531 156.37480469 -128.33289063 155.74960937 -129.01953125 155.10546875 C-135.06630905 149.26947187 -139.33439114 142.85049092 -143 135.3125 C-143.34248779 134.61334473 -143.68497559 133.91418945 -144.0378418 133.19384766 C-145.03726702 131.13472562 -146.02212549 129.06943144 -147 127 C-147.50144531 125.93910156 -148.00289062 124.87820313 -148.51953125 123.78515625 C-151.80666192 116.38662952 -153.59509529 108.95785183 -155 101 C-155.226875 99.72125 -155.45375 98.4425 -155.6875 97.125 C-158.09805547 72.91686843 -152.6079384 50.65395873 -140 30 C-139.33971335 28.80287231 -138.68087497 27.60494476 -138.0234375 26.40625 C-134.99875404 21.31450487 -131.0596568 17.28021541 -127 13 C-126.37480469 12.33355469 -125.74960938 11.66710937 -125.10546875 10.98046875 C-119.26947187 4.93369095 -112.85049092 0.66560886 -105.3125 -3 C-104.61334473 -3.34248779 -103.91418945 -3.68497559 -103.19384766 -4.0378418 C-101.13472562 -5.03726702 -99.06943144 -6.02212549 -97 -7 C-95.40865234 -7.75216797 -95.40865234 -7.75216797 -93.78515625 -8.51953125 C-86.38662952 -11.80666192 -78.95785183 -13.59509529 -71 -15 C-69.081875 -15.3403125 -69.081875 -15.3403125 -67.125 -15.6875 C-42.91686843 -18.09805547 -20.65395873 -12.6079384 0 0 Z M-115.5625 42.0625 C-127.08127977 57.42920186 -131.24809469 77.25637809 -128.71875 96.09472656 C-125.11490915 117.46181705 -112.70360881 134.49392087 -95.53515625 147.36328125 C-79.0542855 158.00347361 -59.06378556 161.87275465 -39.85546875 157.96582031 C-30.56513231 155.78066721 -22.32781515 151.56257958 -14 147 C-14 146.34 -14 145.68 -14 145 C-13.41605469 144.731875 -12.83210938 144.46375 -12.23046875 144.1875 C2.12037058 136.54712319 11.38899668 120.99904572 16.38671875 106.046875 C22.10308877 87.02708225 19.47714061 67.53086447 10.62255859 49.94677734 C0.86055524 32.21793098 -16.51006365 18.87165761 -35.70068359 13.16308594 C-67.48932028 4.55382626 -94.97763152 18.11843097 -115.5625 42.0625 Z " fill="#070707" transform="translate(305,165)"/>
<path d="M0 0 C2 1 2 1 2 1 Z " fill="#FFFFFF" transform="translate(4,422)"/>
<path d="" fill="#FFFFFF" transform="translate(0,0)"/>
<path d="" fill="#FFFFFF" transform="translate(0,0)"/>
<path d="" fill="#FFFFFF" transform="translate(0,0)"/>
<path d="" fill="#FFFFFF" transform="translate(0,0)"/>
<path d="" fill="#FFFFFF" transform="translate(0,0)"/>
<path d="" fill="#FFFFFF" transform="translate(0,0)"/>
<path d="" fill="#FFFFFF" transform="translate(0,0)"/>
<path d="" fill="#FFFFFF" transform="translate(0,0)"/>
<path d="" fill="#FFFFFF" transform="translate(0,0)"/>
<path d="" fill="#FFFFFF" transform="translate(0,0)"/>
<path d="" fill="#FFFFFF" transform="translate(0,0)"/>
<path d="" fill="#FFFFFF" transform="translate(0,0)"/>
<path d="" fill="#FFFFFF" transform="translate(0,0)"/>
<path d="" fill="#FFFFFF" transform="translate(0,0)"/>
<path d="" fill="#FFFFFF" transform="translate(0,0)"/>
<path d="" fill="#FFFFFF" transform="translate(0,0)"/>
<path d="" fill="#FFFFFF" transform="translate(0,0)"/>
<path d="" fill="#FFFFFF" transform="translate(0,0)"/>
<path d="" fill="#FFFFFF" transform="translate(0,0)"/>
<path d="" fill="#FFFFFF" transform="translate(0,0)"/>
<path d="" fill="#FFFFFF" transform="translate(0,0)"/>
<path d="" fill="#FFFFFF" transform="translate(0,0)"/>
<path d="" fill="#FFFFFF" transform="translate(0,0)"/>
<path d="" fill="#FFFFFF" transform="translate(0,0)"/>
<path d="" fill="#FFFFFF" transform="translate(0,0)"/>
<path d="" fill="#FFFFFF" transform="translate(0,0)"/>
<path d="" fill="#FFFFFF" transform="translate(0,0)"/>
<path d="" fill="#FFFFFF" transform="translate(0,0)"/>
<path d="" fill="#FFFFFF" transform="translate(0,0)"/>
<path d="" fill="#FFFFFF" transform="translate(0,0)"/>
<path d="" fill="#FFFFFF" transform="translate(0,0)"/>
<path d="" fill="#FFFFFF" transform="translate(0,0)"/>
<path d="" fill="#FFFFFF" transform="translate(0,0)"/>
<path d="" fill="#FFFFFF" transform="translate(0,0)"/>
<path d="" fill="#FFFFFF" transform="translate(0,0)"/>
<path d="" fill="#FFFFFF" transform="translate(0,0)"/>
<path d="" fill="#FFFFFF" transform="translate(0,0)"/>
<path d="" fill="#FFFFFF" transform="translate(0,0)"/>
<path d="" fill="#FFFFFF" transform="translate(0,0)"/>
<path d="" fill="#FFFFFF" transform="translate(0,0)"/>
<path d="" fill="#FFFFFF" transform="translate(0,0)"/>
<path d="" fill="#FFFFFF" transform="translate(0,0)"/>
<path d="" fill="#FFFFFF" transform="translate(0,0)"/>
<path d="" fill="#FFFFFF" transform="translate(0,0)"/>
<path d="" fill="#FFFFFF" transform="translate(0,0)"/>
<path d="" fill="#FFFFFF" transform="translate(0,0)"/>
<path d="" fill="#FFFFFF" transform="translate(0,0)"/>
<path d="" fill="#FFFFFF" transform="translate(0,0)"/>
<path d="" fill="#FFFFFF" transform="translate(0,0)"/>
<path d="" fill="#FFFFFF" transform="translate(0,0)"/>
<path d="" fill="#FFFFFF" transform="translate(0,0)"/>
<path d="" fill="#FFFFFF" transform="translate(0,0)"/>
<path d="" fill="#FFFFFF" transform="translate(0,0)"/>
<path d="" fill="#FFFFFF" transform="translate(0,0)"/>
<path d="" fill="#FFFFFF" transform="translate(0,0)"/>
<path d="" fill="#FFFFFF" transform="translate(0,0)"/>
<path d="" fill="#FFFFFF" transform="translate(0,0)"/>
<path d="" fill="#FFFFFF" transform="translate(0,0)"/>
<path d="" fill="#FFFFFF" transform="translate(0,0)"/>
<path d="" fill="#FFFFFF" transform="translate(0,0)"/>
<path d="" fill="#FFFFFF" transform="translate(0,0)"/>
<path d="" fill="#FFFFFF" transform="translate(0,0)"/>
<path d="" fill="#FFFFFF" transform="translate(0,0)"/>
<path d="" fill="#FFFFFF" transform="translate(0,0)"/>
<path d="" fill="#FFFFFF" transform="translate(0,0)"/>
<path d="" fill="#FFFFFF" transform="translate(0,0)"/>
<path d="" fill="#FFFFFF" transform="translate(0,0)"/>
</svg>
