<svg width="42" height="42" viewBox="0 0 42 42" fill="none" xmlns="http://www.w3.org/2000/svg">
<path d="M25.9114 29.3184L28.7191 26.5093C29.1512 26.072 29.6657 25.7244 30.2327 25.4874C30.7999 25.2504 31.4083 25.1286 32.0228 25.1286C32.6376 25.1286 33.246 25.2504 33.8132 25.4874C34.3802 25.7244 34.8947 26.072 35.3266 26.5093L38.6198 29.8041C39.057 30.2362 39.4043 30.7504 39.6411 31.3179C39.878 31.8851 40 32.4942 40 33.109C40 33.7239 39.878 34.3328 39.6411 34.9003C39.4043 35.4675 39.057 35.9818 38.6198 36.4138L37.121 37.9344C36.0883 38.9777 34.7526 39.6683 33.3044 39.9071C31.8563 40.146 30.3697 39.9215 29.0568 39.2651C17.7592 33.4471 8.55722 24.2486 2.73236 12.9513C2.07568 11.6364 1.85272 10.1472 2.09548 8.6976C2.33825 7.248 3.03426 5.91262 4.08346 4.88373L5.58221 3.36324C6.46025 2.49015 7.64798 2 8.88597 2C10.124 2 11.3117 2.49015 12.1897 3.36324L15.5041 6.67902C16.3768 7.55743 16.8667 8.74549 16.8667 9.98401C16.8667 11.2225 16.3768 12.4106 15.5041 13.289L12.6964 16.0979C14.5528 18.6101 16.592 20.9815 18.7972 23.1935C20.9898 25.3907 23.3469 27.4172 25.8481 29.255L25.9114 29.3184Z" stroke="#052759" stroke-width="3" stroke-linecap="round" stroke-linejoin="round"/>
</svg>
