<svg width="45" height="42" viewBox="0 0 45 42" fill="none" xmlns="http://www.w3.org/2000/svg">
<path d="M23.8638 37.9355C22.7342 37.9355 21.8184 38.8454 21.8184 39.9677C21.8184 41.0901 22.7342 42 23.8638 42H40.2275C42.8634 42 45.0002 39.877 45.0002 37.2581V4.74194C45.0002 2.12303 42.8634 0 40.2275 0H23.8638C22.7342 0 21.8184 0.909883 21.8184 2.03226C21.8184 3.15463 22.7342 4.06452 23.8638 4.06452H40.2275C40.6041 4.06452 40.9093 4.36781 40.9093 4.74194V37.2581C40.9093 37.6323 40.6041 37.9355 40.2275 37.9355H23.8638Z" fill="#FB8500"/>
<path fill-rule="evenodd" clip-rule="evenodd" d="M0 24.0219C0 25.8926 1.52629 27.409 3.40909 27.409H15.9889C16.0067 27.6079 16.0253 27.8067 16.0448 28.0056L16.1921 29.5119C16.4169 31.81 18.873 33.1863 20.9689 32.1886C25.4258 30.0663 29.7311 26.8817 33.1498 23.3352C34.4158 22.0219 34.4158 19.9508 33.1498 18.6375L32.8792 18.3567C29.4606 14.8105 25.4258 11.9064 20.9689 9.78424C18.873 8.78638 16.4169 10.1627 16.1921 12.4608L16.0448 13.967C16.0253 14.1659 16.0067 14.3648 15.9889 14.5637H3.40909C1.52629 14.5637 0 16.0801 0 17.9508V24.0219ZM19.9178 25.1477C19.8019 24.1262 18.9308 23.3444 17.8854 23.3444H4.09091V18.6283H17.8854C18.9657 18.6283 19.8598 17.7937 19.9268 16.7225C19.9765 15.9343 20.0395 15.1468 20.1164 14.3602L20.1592 13.923C23.718 15.7452 26.9569 18.1302 29.7483 20.9865C28.5827 22.179 27.3393 23.2892 26.0269 24.311C24.1964 25.736 22.2322 26.9884 20.1592 28.0498L20.1164 27.6125C20.0395 26.8258 19.9765 26.0384 19.9268 25.2502C19.9247 25.2157 19.9217 25.1816 19.9178 25.1477Z" fill="#FB8500"/>
</svg>
