<svg width="76" height="72" viewBox="0 0 76 72" fill="none" xmlns="http://www.w3.org/2000/svg">
<g filter="url(#filter0_d_360_680)">
<path d="M40.0606 57.8064C38.3536 57.8064 36.9697 59.193 36.9697 60.9032C36.9697 62.6135 38.3536 64 40.0606 64H64.7879C68.7711 64 72.0001 60.7649 72.0001 56.7742V7.22581C72.0001 3.2351 68.7711 0 64.7879 0H40.0606C38.3536 0 36.9697 1.38649 36.9697 3.09677C36.9697 4.80706 38.3536 6.19355 40.0606 6.19355H64.7879C65.3571 6.19355 65.8182 6.65571 65.8182 7.22581V56.7742C65.8182 57.3444 65.3571 57.8064 64.7879 57.8064H40.0606Z" fill="#0C3F8C"/>
<path fill-rule="evenodd" clip-rule="evenodd" d="M4 36.6048C4 39.4555 6.3064 41.7661 9.15152 41.7661H28.161C28.1879 42.0692 28.2161 42.3722 28.2454 42.6753L28.4681 44.9706C28.8078 48.4725 32.5192 50.5696 35.6864 49.0493C42.4213 45.8154 48.927 40.9626 54.093 35.5585C56.0061 33.5572 56.0061 30.4013 54.093 28.4L53.6842 27.9722C48.5182 22.5685 42.4213 18.1432 35.6864 14.9094C32.5192 13.3888 28.8078 15.486 28.4681 18.9879L28.2454 21.2831C28.2161 21.5861 28.1879 21.8893 28.161 22.1924H9.15152C6.3064 22.1924 4 24.503 4 27.3537V36.6048ZM34.0981 38.3204C33.9229 36.7638 32.6066 35.5725 31.0268 35.5725H10.1818V28.386H31.0268C32.6594 28.386 34.0103 27.1142 34.1117 25.482C34.1867 24.2809 34.2819 23.0809 34.3981 21.8823L34.4628 21.2161C39.8406 23.9927 44.7349 27.627 48.953 31.9795C47.1916 33.7966 45.3127 35.4883 43.3296 37.0454C40.5634 39.2168 37.5953 41.1253 34.4628 42.7426L34.3981 42.0762C34.2819 40.8775 34.1867 39.6776 34.1117 38.4765C34.1084 38.424 34.1038 38.372 34.0981 38.3204Z" fill="#0C3F8C"/>
</g>
<defs>
<filter id="filter0_d_360_680" x="0" y="0" width="76" height="72" filterUnits="userSpaceOnUse" color-interpolation-filters="sRGB">
<feFlood flood-opacity="0" result="BackgroundImageFix"/>
<feColorMatrix in="SourceAlpha" type="matrix" values="0 0 0 0 0 0 0 0 0 0 0 0 0 0 0 0 0 0 127 0" result="hardAlpha"/>
<feOffset dy="4"/>
<feGaussianBlur stdDeviation="2"/>
<feComposite in2="hardAlpha" operator="out"/>
<feColorMatrix type="matrix" values="0 0 0 0 0 0 0 0 0 0 0 0 0 0 0 0 0 0 0.25 0"/>
<feBlend mode="normal" in2="BackgroundImageFix" result="effect1_dropShadow_360_680"/>
<feBlend mode="normal" in="SourceGraphic" in2="effect1_dropShadow_360_680" result="shape"/>
</filter>
</defs>
</svg>
