<svg width="55" height="46" viewBox="0 0 55 46" fill="none" xmlns="http://www.w3.org/2000/svg">
<path d="M39.0909 44V39.3333C39.0909 36.858 38.114 34.484 36.375 32.7337C34.636 30.9833 32.2775 30 29.8182 30H11.2727C8.81345 30 6.45489 30.9833 4.71592 32.7337C2.97695 34.484 2 36.858 2 39.3333V44" stroke="#FB8500" stroke-width="4" stroke-linecap="round" stroke-linejoin="round"/>
<path d="M20.5457 20.6667C25.6669 20.6667 29.8184 16.488 29.8184 11.3333C29.8184 6.17868 25.6669 2 20.5457 2C15.4245 2 11.2729 6.17868 11.2729 11.3333C11.2729 16.488 15.4245 20.6667 20.5457 20.6667Z" stroke="#FB8500" stroke-width="4" stroke-linecap="round" stroke-linejoin="round"/>
<path d="M39.0908 20.6666H52.9999" stroke="#FB8500" stroke-width="4" stroke-linecap="round" stroke-linejoin="round"/>
<path d="M46.0454 13.6666V27.6666" stroke="#FB8500" stroke-width="4" stroke-linecap="round" stroke-linejoin="round"/>
</svg>
